# Alias OBJ Model File
# Exported from SketchUp, (c) 2000-2012 Trimble Navigation Limited
# File units = inches

mtllib ROBO_Room1.mtl

g Mesh1 Model

usemtl FrontColor
v 148 97 6.1875
vt -148 97
vn 0 0 -1
v 148 -6 6.1875
vt -148 -6
v 0 -6 6.1875
vt 0 -6
v 0 97 6.1875
vt 0 97
f 1/1/1 2/2/1 3/3/1 4/4/1 

v 148 81 -40.8684
vt -40.8684 81
vn -1 0 -0
v 148 85.5 -40.8684
vt -40.8684 85.5
v 148 85.5 -43.8125
vt -43.8125 85.5
v 148 79 -43.8125
vt -43.8125 79
v 148 79 0.1875
vt 0.1875 79
v 148 -6 0.1875
vt 0.1875 -6
vt 6.1875 -6
vt 6.1875 97
v 148 97 0.1875
vt 0.1875 97
v 148 91 0.1875
vt 0.1875 91
v 148 91 -36.3684
vt -36.3684 91
v 148 81 -36.3684
vt -36.3684 81
f 5/5/2 6/6/2 7/7/2 8/8/2 9/9/2 10/10/2 2/11/2 1/12/2 11/13/2 12/14/2 13/15/2 14/16/2 

v 148 91 -40.8684
vt -40.8684 91
f 5/5/2 14/16/2 13/15/2 15/17/2 6/6/2 

vt 148 40.8684
vn 0 1 -0
v 7.5 81 -40.8684
vt 7.5 40.8684
v 7.5 81 -36.3684
vt 7.5 36.3684
vt 148 36.3684
f 5/18/3 16/19/3 17/20/3 14/21/3 

vt 148 81
vn 0 0 1
vt 148 85.5
v 118 85.5 -40.8684
vt 118 85.5
v 114 85.5 -40.8684
vt 114 85.5
v 101 85.5 -40.8684
vt 101 85.5
v 101 91 -40.8684
vt 101 91
v 0 91 -40.8684
vt 0 91
v 0 81 -40.8684
vt 0 81
vt 7.5 81
f 5/22/4 6/23/4 18/24/4 19/25/4 20/26/4 21/27/4 22/28/4 23/29/4 16/30/4 

vt -148 40.8684
vn 0 -1 -0
vt -118 40.8684
v 118 85.5 -43.8125
vt -118 43.8125
v 114 85.5 -43.8125
vt -114 43.8125
vt -114 40.8684
vt -101 40.8684
v 101 85.5 -50.875
vt -101 50.875
v 148 85.5 -50.875
vt -148 50.875
vt -148 43.8125
f 6/31/5 18/32/5 24/33/5 25/34/5 19/35/5 20/36/5 26/37/5 27/38/5 7/39/5 

v 118 91 -40.8684
vt 118 91
vt 148 91
f 28/40/4 21/27/4 20/26/4 19/25/4 18/24/4 6/23/4 15/41/4 

v 118 91 -36.3684
vt -118 36.3684
v 101 91 -36.3684
vt -101 36.3684
f 29/42/5 30/43/5 21/36/5 28/32/5 

vt -101 91
vn -3.6408e-016 -3.1461e-016 -1
vt -118 91
v 118 85.5 -36.3684
vt -118 85.5
v 114 85.5 -36.3684
vt -114 85.5
v 101 85.5 -36.3684
vt -101 85.5
f 30/44/6 29/45/6 31/46/6 32/47/6 33/48/6 

v 0 81 -36.3684
vt -4.49327e-016 81
vn -1.23549e-017 -1.12831e-016 -1
v 0 91 -36.3684
vt -4.49327e-016 91
vt -148 91
vt -148 81
vt -7.5 81
f 34/49/7 35/50/7 30/44/7 33/48/7 32/47/7 31/46/7 29/45/7 13/51/7 14/52/7 17/53/7 

f 23/5/2 34/16/2 35/15/2 22/17/2 

vt 0 40.8684
vt 0 36.3684
f 23/54/3 34/55/3 17/20/3 16/19/3 

v 0 72 -36.3684
vt 0 72
v 7.5 72 -36.3684
vt -7.5 72
f 36/56/1 34/29/1 17/53/1 37/57/1 

v 0 91 0.1875
vt -36.3684 72
v 0 72 0.1875
vt 0.1875 72
f 38/14/2 35/15/2 34/16/2 36/58/2 39/59/2 

v 0 91 -174.313
vt -174.313 91
v 0 91 -134.313
vt -134.313 91
v 0 91 -129.813
vt -129.813 91
v 0 91 -123.188
vt -123.188 91
v 0 91 -117.188
vt -117.188 91
v 0 91 -56.875
vt -56.875 91
v 0 91 -50.875
vt -50.875 91
v 0 97 0.1875
v 0 97 -174.313
vt -174.313 97
f 40/60/2 41/61/2 42/62/2 43/63/2 44/64/2 45/65/2 46/66/2 22/17/2 35/15/2 38/14/2 47/13/2 48/67/2 

v 0 83 -129.813
vt -129.813 83
v 0 83 -134.313
vt -134.313 83
v 0 72 -174.313
vt -174.313 72
v 0 72 -40.8684
vt -40.8684 72
v 0 79.5 -50.875
vt -50.875 79.5
v 0 79.5 -56.875
vt -56.875 79.5
v 0 79.5 -117.188
vt -117.188 79.5
v 0 79.5 -123.188
vt -123.188 79.5
f 43/63/2 42/62/2 49/68/2 50/69/2 41/61/2 40/60/2 51/70/2 52/71/2 23/5/2 22/17/2 46/66/2 53/72/2 54/73/2 45/65/2 44/64/2 55/74/2 56/75/2 

vt 0 129.813
v 101 91 -129.813
vt -101 129.813
v 101 91 -123.188
vt -101 123.188
vt 0 123.188
f 42/76/5 57/77/5 58/78/5 43/79/5 

v 101 85.5 -129.813
v 148 85.5 -129.813
vt -148 85.5
v 148 83 -129.813
vt -148 83
vt 0 83
f 59/48/1 60/80/1 61/81/1 49/82/1 42/28/1 57/44/1 

v 148 85.5 -123.188
vt -148 123.188
v 101 85.5 -123.188
vt -148 129.813
f 62/83/5 63/78/5 59/77/5 60/84/5 

v 148 79.5 -123.188
vt 148 79.5
vt 0 79.5
f 64/85/4 62/23/4 63/26/4 58/27/4 43/28/4 56/86/4 

v 148 79.5 -117.188
v 148 85.5 -117.188
vt -117.188 85.5
v 148 91 -117.188
v 148 91 -123.188
vt -123.188 85.5
f 64/75/2 65/74/2 66/87/2 67/64/2 68/63/2 62/88/2 

vt 0 117.188
vt 148 117.188
vt 148 123.188
f 56/79/3 55/89/3 65/90/3 64/91/3 

v 101 85.5 -117.188
vt -148 79.5
v 101 91 -117.188
f 69/48/1 66/80/1 65/92/1 55/86/1 44/28/1 70/44/1 

v 148 85.5 -56.875
vt -148 56.875
v 101 85.5 -56.875
vt -101 56.875
vt -101 117.188
vt -148 117.188
v 149.125 85.5 -117.188
vt -149.125 117.188
v 149.125 85.5 -56.875
vt -149.125 56.875
f 71/93/5 72/94/5 69/95/5 66/96/5 73/97/5 74/98/5 

v 148 79.5 -56.875
v 101 91 -56.875
f 75/85/4 71/23/4 72/26/4 76/27/4 45/28/4 54/86/4 

v 148 91 -50.875
v 148 91 -56.875
vt -56.875 85.5
v 148 79.5 -50.875
vt -50.875 85.5
f 77/66/2 78/65/2 71/99/2 75/73/2 79/72/2 27/100/2 

v 148 91 -161.313
vt 161.313 91
vn 1 0 -0
v 148 91 -174.313
vt 174.313 91
v 148 97 -174.313
vt 174.313 97
vt -0.1875 97
vt -0.1875 91
vt 36.3684 91
vt 40.8684 91
v 148 91 -43.8125
vt 43.8125 91
vt 50.875 91
vt 56.875 91
vt 117.188 91
vt 123.188 91
v 148 91 -129.813
vt 129.813 91
v 148 91 -134.313
vt 134.313 91
f 80/101/8 81/102/8 82/103/8 11/104/8 12/105/8 13/106/8 15/107/8 83/108/8 77/109/8 78/110/8 67/111/8 68/112/8 84/113/8 85/114/8 

v 118 91 -174.313
vt -118 174.313
vt -148 174.313
vt -148 161.313
v 118 91 -161.313
vt -118 161.313
f 86/115/5 81/116/5 80/117/5 87/118/5 

v 58 91 -174.313
vt -58 91
v 101 91 -174.313
v 101 79 -174.313
vt -101 79
v 58 79 -174.313
vt -58 79
f 88/119/1 40/28/1 48/4/1 82/1/1 81/51/1 86/45/1 89/44/1 90/120/1 91/121/1 

v 101 91 -143.313
vt -101 143.313
v 101 91 -139.313
vt -101 139.313
v 101 91 -134.313
vt -101 134.313
vt 0 134.313
vt 0 174.313
vt -58 174.313
v 58 91 -143.313
vt -58 143.313
f 92/122/5 93/123/5 94/124/5 41/125/5 40/126/5 88/127/5 95/128/5 

vt -101 174.313
v 118 91 -139.313
vt -118 139.313
f 89/129/5 86/115/5 87/118/5 96/130/5 93/123/5 92/122/5 

v 118 84.875 -139.313
vt -139.313 84.875
vt -139.313 91
vt -161.313 91
v 118 84.875 -161.313
vt -161.313 84.875
f 97/131/2 96/132/2 87/133/2 98/134/2 

vt -118 84.875
v 101 84.875 -139.313
vt -101 84.875
f 93/44/1 96/45/1 97/135/1 99/136/1 

v 101 79 -139.313
v 118 77 -139.313
vt -118 77
v 101 77 -139.313
vt -101 77
f 100/120/1 99/136/1 97/135/1 101/137/1 102/138/1 

vt 139.313 79
v 101 79 -143.313
vt 143.313 79
vt 143.313 91
vt 139.313 91
vt 139.313 84.875
f 100/139/8 103/140/8 92/141/8 93/142/8 99/143/8 

vt 139.313 77
v 101 77 -169.25
vt 169.25 77
v 101 79 -169.25
vt 169.25 79
f 102/144/8 104/145/8 105/146/8 103/140/8 100/139/8 

v 118 77 -169.25
vt 118 169.25
vt 101 169.25
vt 101 139.313
vt 118 139.313
f 106/147/3 104/148/3 102/149/3 101/150/3 

v 118 72 -169.25
vt -118 72
v 101 72 -169.25
vt -101 72
f 107/151/1 108/152/1 104/138/1 106/137/1 

v 7.5 67.5 -169.25
vt -7.5 67.5
v 7.5 72 -169.25
v 58 72 -169.25
vt -58 72
v 148 72 -169.25
vt -148 72
v 148 67.5 -169.25
vt -148 67.5
f 109/153/1 110/57/1 111/154/1 108/152/1 107/151/1 112/155/1 113/156/1 

vt -169.25 67.5
v 7.5 67.5 -19.6392
vt -19.6392 67.5
v 7.5 72 -19.6392
vt -19.6392 72
v 7.5 72 -40.8684
vt -169.25 72
f 109/157/2 114/158/2 115/159/2 37/58/2 116/71/2 110/160/2 

v 0 67.5 -174.313
v 0 67.5 0.1875
vt 0 -0.1875
v 7.5 67.5 0.1875
vt 7.5 -0.1875
vt 7.5 19.6392
vt 7.5 169.25
v 7.5 67.5 -174.313
vt 7.5 174.313
f 117/126/3 118/161/3 119/162/3 114/163/3 109/164/3 120/165/3 

v 0 -6 0.1875
vt 0.1875 67.5
vt -174.313 67.5
v 0 0 -174.313
vt -174.313 0
v 0 0 -0
vt 0 0
v 0 -6 -0
f 121/10/2 118/166/2 117/167/2 122/168/2 123/169/2 124/3/2 

vt 148 -6
vt 148 79
v 114 79 0.1875
vt 114 79
v 114 85.5 0.1875
v 101 85.5 0.1875
v 101 91 0.1875
v 7.5 72 0.1875
vt 7.5 72
v 20.0625 72 0.1875
vt 20.0625 72
v 20.0625 67.5 0.1875
vt 20.0625 67.5
vt 7.5 67.5
vt 0 67.5
f 10/170/4 9/171/4 125/172/4 126/25/4 127/26/4 128/27/4 38/28/4 39/56/4 129/173/4 130/174/4 131/175/4 119/176/4 118/177/4 121/3/4 

vt 114 -0.1875
vt 148 -0.1875
vt 148 43.8125
v 114 79 -43.8125
vt 114 43.8125
f 125/178/3 9/179/3 8/180/3 132/181/3 

v 118 91 -43.8125
f 24/24/4 25/25/4 132/172/4 8/171/4 7/23/4 83/41/4 133/40/4 

f 18/32/5 19/35/5 25/34/5 24/33/5 

vt -114 36.3684
f 32/182/5 19/35/5 18/32/5 31/42/5 

vt -0.1875 85.5
vt -0.1875 79
vt 43.8125 79
vt 43.8125 85.5
vt 40.8684 85.5
vt 36.3684 85.5
f 126/183/8 125/184/8 132/185/8 25/186/8 19/187/8 32/188/8 

v 118 85.5 0.1875
vt -118 -0.1875
vt -114 -0.1875
f 134/189/5 126/190/5 32/182/5 31/42/5 

v 118 91 0.1875
v 114 91 0.1875
vt 114 91
f 134/24/4 135/40/4 136/191/4 126/25/4 

f 29/106/8 135/105/8 134/183/8 31/188/8 

vt -148 -0.1875
vn -2.36848e-016 -1 1.94371e-016
vt -148 36.3684
f 12/192/9 135/189/9 29/42/9 13/193/9 

vt 148 97
f 127/26/4 126/25/4 136/191/4 135/40/4 12/41/4 11/194/4 47/4/4 38/28/4 128/27/4 

vt -101 -0.1875
f 33/43/5 32/182/5 126/190/5 127/195/5 

vt -36.3684 85.5
vt 0.1875 85.5
f 128/14/2 30/15/2 33/196/2 127/197/2 

vt -6.40192e-015 36.3684
vn 7.03508e-017 -1 1.94371e-016
vt -6.40192e-015 -0.1875
f 35/198/10 30/43/10 128/195/10 38/199/10 

vt -1.28038e-014 40.8684
vn 1.40702e-016 -1 -0
vt -1.28038e-014 36.3684
f 22/200/11 21/36/11 30/43/11 35/201/11 

vt -6.40192e-015 50.875
vn 7.03508e-017 -1 -7.10077e-016
v 101 91 -50.875
vt -6.40192e-015 40.8684
f 46/202/12 137/37/12 21/36/12 22/203/12 

vn -2.07129e-017 -4.80009e-017 -1
vt -1.05377e-015 79.5
vt -1.05377e-015 91
f 26/48/13 27/80/13 79/92/13 53/204/13 46/205/13 137/44/13 

vn -6.08749e-017 1.91335e-016 -1
v 118 91 -50.875
f 137/44/14 138/45/14 77/51/14 27/80/14 26/48/14 

v 118 91 -56.875
vt -118 56.875
vt -118 50.875
f 76/94/5 139/206/5 138/207/5 137/37/5 

f 139/40/4 76/27/4 72/26/4 71/23/4 78/41/4 

f 76/65/2 70/64/2 69/87/2 72/99/2 

vt 0 56.875
f 44/89/5 70/95/5 76/94/5 45/208/5 

f 43/79/5 58/78/5 70/95/5 44/89/5 

v 118 91 -117.188
vt -118 117.188
v 118 91 -123.188
vt -118 123.188
f 140/209/5 70/95/5 58/78/5 141/210/5 

f 70/44/1 140/45/1 67/51/1 66/80/1 69/48/1 

f 67/96/5 140/209/5 141/210/5 68/83/5 

f 141/40/4 58/27/4 63/26/4 62/23/4 68/41/4 

vt -129.813 85.5
f 58/63/2 57/62/2 59/211/2 63/88/2 

v 118 91 -129.813
f 57/44/1 142/45/1 84/51/1 60/80/1 59/48/1 

vt -118 129.813
v 118 91 -134.313
vt -118 134.313
f 142/212/5 57/77/5 94/124/5 143/213/5 

f 41/125/5 94/124/5 57/77/5 42/76/5 

v 148 83 -134.313
vt 148 83
v 148 84.875 -134.313
vt 148 84.875
v 101 84.875 -134.313
vt 101 84.875
f 144/214/4 145/215/4 146/216/4 94/27/4 41/28/4 50/82/4 

vt -134.313 84.875
f 84/62/2 85/61/2 145/217/2 144/69/2 61/68/2 60/211/2 

vt -148 134.313
f 84/84/5 142/212/5 143/213/5 85/218/5 

f 143/40/4 94/27/4 146/216/4 145/215/4 85/41/4 

f 94/61/2 93/132/2 99/131/2 146/217/2 

v 148 84.875 -161.313
f 99/123/5 97/130/5 98/118/5 147/117/5 145/218/5 146/124/5 

v 118 84.844 -161.313
vt -161.313 84.844
v 118 84.844 -169.25
vt -169.25 84.844
vt -169.25 77
vt -139.313 77
f 148/219/2 149/220/2 106/221/2 101/222/2 97/131/2 98/134/2 

v 148 84.844 -161.313
vt 148 161.313
v 148 84.844 -169.25
vt 148 169.25
vt 118 161.313
f 150/223/3 151/224/3 149/147/3 148/225/3 

v 148 97 -180.313
vt -180.313 97
v 148 0 -180.313
vt -180.313 0
v 148 0 -174.313
v 148 67.5 -174.313
v 148 72 -174.313
f 152/226/2 153/227/2 154/168/2 155/167/2 156/70/2 112/160/2 151/220/2 150/219/2 147/134/2 80/133/2 81/60/2 82/67/2 

v 0 97 -180.313
v 0 0 -180.313
vt 148 0
f 157/4/4 158/169/4 153/228/4 152/194/4 

v -6 97 -180.313
vt -6 97
v -6 -6 -180.313
vt -6 -6
v 0 -6 -180.313
f 159/229/4 160/230/4 161/3/4 158/169/4 157/4/4 

v -6 97 -174.313
v -6 -6 -174.313
vt 174.313 -6
vt 180.313 -6
vt 180.313 97
f 162/103/8 163/231/8 160/232/8 159/233/8 

v -6 97 0.1875
v -6 -6 0.1875
vt -0.1875 -6
f 164/104/8 165/234/8 163/231/8 162/103/8 

v -6 97 6.1875
vt -6.1875 97
vn 1 0 2.96059e-016
v -6 -6 6.1875
vt -6.1875 -6
f 166/235/15 167/236/15 165/234/15 164/104/15 

vt 1.83187e-015 97
vn -2.96059e-016 0 -1
vt 1.83187e-015 -6
vt 6 -6
vt 6 97
f 4/237/16 3/238/16 167/239/16 166/240/16 

v 0 -6 -174.313
vt 0 180.313
vt -6 180.313
vt -6 174.313
vt -6 -0.1875
vt -6 -6.1875
vt 0 -6.1875
vt 148 -6.1875
f 124/169/3 168/126/3 161/241/3 160/242/3 163/243/3 165/244/3 167/245/3 3/246/3 2/247/3 10/179/3 121/161/3 

v 148 -6 -174.313
v 148 -6 -0
vt -148 0
f 124/169/5 168/126/5 169/116/5 170/248/5 

vt -174.313 -6
f 123/169/2 122/168/2 168/249/2 124/3/2 

v 148 0 -0
vt 148 174.313
vt 148 180.313
f 122/126/3 123/169/3 171/228/3 154/250/3 153/251/3 158/241/3 

f 171/228/4 123/169/4 124/3/4 170/170/4 

vt 174.313 0
f 154/252/8 171/169/8 170/3/8 169/231/8 

v 148 -6 -180.313
vt -180.313 -6
f 169/249/2 154/168/2 153/227/2 172/253/2 

f 120/153/1 155/156/1 154/248/1 169/2/1 168/3/1 122/169/1 117/177/1 

f 155/250/3 120/165/3 109/164/3 113/224/3 

v 7.5 72 -174.313
f 173/70/2 120/167/2 109/157/2 110/160/2 

f 117/177/1 51/56/1 173/57/1 120/153/1 

f 157/226/2 158/227/2 122/168/2 117/167/2 51/70/2 40/60/2 48/67/2 

f 168/249/2 122/168/2 158/227/2 161/253/2 

f 172/170/4 153/228/4 158/169/4 161/3/4 

f 172/251/3 161/241/3 168/126/3 169/250/3 

v 58 72 -174.313
f 88/119/1 91/121/1 174/154/1 173/57/1 51/56/1 40/28/1 

vt -143.313 91
vt -174.313 79
v 58 79 -169.25
vt -169.25 79
v 58 79 -143.313
vt -143.313 79
f 95/254/2 88/60/2 91/255/2 175/256/2 176/257/2 

vt 174.313 72
vt 174.313 79
vt 169.25 72
f 174/258/8 91/259/8 175/146/8 111/260/8 

vt -101 169.25
vt -58 169.25
f 91/127/5 90/129/5 105/261/5 175/262/5 

f 89/102/8 92/141/8 103/140/8 105/146/8 90/259/8 

vt 58 91
vt 58 79
vt 101 79
f 92/27/4 95/263/4 176/264/4 103/265/4 

f 176/128/5 175/262/5 105/261/5 103/122/5 

f 105/120/1 104/138/1 108/152/1 111/154/1 175/121/1 

vt -7.5 169.25
vt -7.5 174.313
f 174/127/5 111/262/5 110/266/5 173/267/5 

vt -7.5 40.8684
f 110/266/5 116/268/5 52/54/5 51/126/5 173/267/5 

f 23/29/4 52/56/4 116/173/4 16/30/4 

f 116/71/2 37/58/2 17/16/2 16/5/2 

vt -148 180.313
f 82/116/5 48/126/5 157/241/5 152/269/5 

f 11/179/3 82/250/3 48/126/3 47/161/3 

vt 6 -0.1875
vt 6 174.313
f 48/126/5 47/161/5 164/270/5 162/271/5 

vt 6 -6.1875
f 166/272/5 164/270/5 47/161/5 4/246/5 

vt -148 -6.1875
f 1/273/5 4/246/5 47/161/5 11/192/5 

vt 6 180.313
f 48/126/5 162/271/5 159/274/5 157/241/5 

f 156/70/2 155/167/2 113/157/2 112/160/2 

vt -118 84.844
vt -148 84.844
f 112/155/1 107/151/1 106/137/1 149/275/1 151/276/1 

vt -148 84.875
f 148/275/1 98/135/1 147/277/1 150/276/1 

vt 134.313 84.875
vt 161.313 84.875
f 80/101/8 85/114/8 145/278/8 147/279/8 

vt 148 129.813
vt 148 134.313
f 50/125/3 49/76/3 61/280/3 144/281/3 

vt 123.188 85.5
vt 129.813 85.5
f 84/113/8 68/112/8 62/282/8 60/283/8 

v 149.125 91 -117.188
vt -149.125 91
vt -149.125 85.5
f 66/80/1 67/51/1 177/284/1 73/285/1 

vt 148 56.875
v 149.125 91 -56.875
vt 149.125 56.875
vt 149.125 117.188
f 67/90/3 78/286/3 178/287/3 177/288/3 

vt 149.125 85.5
vt 149.125 91
f 78/41/4 71/23/4 74/289/4 178/290/4 

vt 56.875 85.5
vt 117.188 85.5
f 177/111/8 178/110/8 74/291/8 73/292/8 

vt 0 50.875
f 45/208/5 76/94/5 137/37/5 46/293/5 

f 77/38/5 138/207/5 139/206/5 78/93/5 

vt 50.875 85.5
f 77/109/8 83/108/8 7/186/8 27/294/8 

f 6/187/8 7/186/8 83/108/8 15/107/8 

vn -2.36848e-016 -1 9.47301e-017
f 83/39/17 15/31/17 28/32/17 133/33/17 

vn -4.73695e-016 -1 -0
f 13/193/18 29/42/18 28/32/18 15/31/18 

f 28/107/8 29/106/8 31/188/8 18/187/8 24/186/8 133/108/8 

f 21/17/2 137/66/2 26/100/2 20/6/2 

vt 148 50.875
f 54/208/3 53/293/3 79/295/3 75/286/3 

vt -7.5 36.3684
vt -7.5 19.6392
vt -7.5 -0.1875
f 36/55/5 37/296/5 115/297/5 129/298/5 39/161/5 

vt 20.0625 -0.1875
f 129/162/3 130/299/3 115/163/3

f 130/174/4 129/173/4 119/176/4 131/175/4 

f 129/59/2 115/159/2 114/158/2 119/166/2 

vt 12.5752 72
vn 0.844711 0 -0.535223
vt -10.8963 72
vt -10.8963 67.5
vt 12.5752 67.5
f 115/300/19 130/301/19 131/302/19 114/303/19 

vt -20.0625 -0.1875
f 131/304/5 119/298/5 114/297/5

